<svg xmlns="http://www.w3.org/2000/svg" xmlns:xlink="http://www.w3.org/1999/xlink" width="59.325" height="51.599" viewBox="0 0 59.325 51.599"><defs><style>.a{fill:rgba(255,153,0,0.35);}.b{fill:#fff;}.c{fill:none;stroke:rgba(255,185,64,0.8);}.d,.e{fill:#f90;}.d{opacity:0.7;}.e{opacity:0.9;}.f,.g{stroke:none;}.g{fill:#fff;}.h{filter:url(#d);}.i{filter:url(#a);}</style><filter id="a"><feOffset input="SourceAlpha"/><feGaussianBlur stdDeviation="5" result="b"/><feFlood flood-opacity="0.349" result="c"/><feComposite operator="out" in="SourceGraphic" in2="b"/><feComposite operator="in" in="c"/><feComposite operator="in" in2="SourceGraphic"/></filter><filter id="d" x="5.751" y="1.599" width="48" height="48" filterUnits="userSpaceOnUse"><feOffset input="SourceAlpha"/><feGaussianBlur stdDeviation="3" result="e"/><feFlood flood-color="#f90"/><feComposite operator="in" in2="e"/><feComposite in="SourceGraphic"/></filter></defs><g transform="translate(-459.918 -971.244)"><g data-type="innerShadowGroup"><path class="a" d="M42.87,0,57.16,24.956,42.87,49.912H14.29L0,24.956,14.29,0Z" transform="translate(518.16 1022) rotate(180)"/><g class="i" transform="matrix(1, 0, 0, 1, 459.92, 971.24)"><path class="b" d="M42.87,0,57.16,24.956,42.87,49.912H14.29L0,24.956,14.29,0Z" transform="translate(58.24 50.76) rotate(180)"/></g><path class="c" d="M42.87,0,57.16,24.956,42.87,49.912H14.29L0,24.956,14.29,0Z" transform="translate(518.16 1022) rotate(180)"/></g><path class="d" d="M-816.8-10404.086l1.031-1.786,2.83,4.915,5.156-.006-1.033,1.786-5.154.006Zm26.821,4.687-1.033-1.786,5.673,0,2.573-4.466,1.031,1.786-2.573,4.466Zm15.663-20.883h0v0l2.583-4.461-2.843-4.907h2.064l2.843,4.907-2.583,4.464Zm-52.1,0-2.583-4.464,2.843-4.907h2.061l-2.84,4.907,2.583,4.464Zm9.613-25.569,2.83-4.918,5.156.008,1.031,1.783v0h0l-5.154-.008-2.83,4.918Zm34.031,1.561-2.57-4.467-5.673,0,1.031-1.786,5.673-.008,2.573,4.47-1.031,1.786Z" transform="translate(1288.919 11422.014)"/><g class="h" transform="matrix(1, 0, 0, 1, 459.92, 971.24)"><g class="e" transform="translate(14.75 10.6)"><path class="f" d="M 22.52658271789551 27.50373458862305 L 15.58623027801514 22.48165130615234 L 15 22.05746078491211 L 14.41376972198486 22.48165130615234 L 7.473416805267334 27.50373458862305 L 9.894740104675293 18.92827033996582 L 10.07427978515625 18.29242134094238 L 9.559809684753418 17.87787055969238 L 2.743728399276733 12.38558197021484 L 11.27686977386475 12.15618133544922 L 11.97529029846191 12.13740062713623 L 12.19789028167725 11.47515106201172 L 15 3.138657093048096 L 17.80211067199707 11.47515106201172 L 18.02470970153809 12.13740062713623 L 18.72312927246094 12.15618133544922 L 27.25627136230469 12.38558197021484 L 20.44018936157227 17.87787055969238 L 19.92572021484375 18.29242134094238 L 20.10526084899902 18.92827033996582 L 22.52658271789551 27.50373458862305 Z"/><path class="g" d="M 15 6.27728271484375 L 12.70056915283203 13.11827087402344 L 5.487436294555664 13.31218338012695 L 11.2161808013916 17.92831039428711 L 9.217350006103516 25.00748062133789 L 15 20.82311058044434 L 20.78264999389648 25.00748062133789 L 18.78382110595703 17.92831039428711 L 24.51256561279297 13.31218338012695 L 17.29943084716797 13.11827087402344 L 15 6.27728271484375 M 15 1.9073486328125e-06 L 18.75 11.15654182434082 L 30 11.45898056030273 L 21.06763076782227 18.65653991699219 L 24.27050971984863 30 L 15 23.29180145263672 L 5.729490280151367 30 L 8.932369232177734 18.65653991699219 L 0 11.45898056030273 L 11.25 11.15654182434082 L 15 1.9073486328125e-06 Z"/></g></g></g></svg>