<svg xmlns="http://www.w3.org/2000/svg" xmlns:xlink="http://www.w3.org/1999/xlink" width="59.325" height="51.599" viewBox="0 0 59.325 51.599"><defs><style>.a{fill:rgba(0,0,0,0.3);}.b{fill:#fff;}.c{fill:none;stroke:rgba(255,185,64,0.51);}.d{fill:#f90;opacity:0.6;}.e{fill:#c9c9c9;}.f{filter:url(#a);}</style><filter id="a"><feOffset input="SourceAlpha"/><feGaussianBlur stdDeviation="5" result="b"/><feFlood flood-opacity="0.302" result="c"/><feComposite operator="out" in="SourceGraphic" in2="b"/><feComposite operator="in" in="c"/><feComposite operator="in" in2="SourceGraphic"/></filter></defs><g transform="translate(-459.918 -971.244)"><g data-type="innerShadowGroup"><path class="a" d="M42.87,0,57.16,24.956,42.87,49.912H14.29L0,24.956,14.29,0Z" transform="translate(518.16 1022) rotate(180)"/><g class="f" transform="matrix(1, 0, 0, 1, 459.92, 971.24)"><path class="b" d="M42.87,0,57.16,24.956,42.87,49.912H14.29L0,24.956,14.29,0Z" transform="translate(58.24 50.76) rotate(180)"/></g><path class="c" d="M42.87,0,57.16,24.956,42.87,49.912H14.29L0,24.956,14.29,0Z" transform="translate(518.16 1022) rotate(180)"/></g><path class="d" d="M-816.8-10404.086l1.031-1.786,2.83,4.915,5.156-.006-1.033,1.786-5.154.006Zm26.821,4.687-1.033-1.786,5.673,0,2.573-4.466,1.031,1.786-2.573,4.466Zm15.663-20.883h0v0l2.583-4.461-2.843-4.907h2.064l2.843,4.907-2.583,4.464Zm-52.1,0-2.583-4.464,2.843-4.907h2.061l-2.84,4.907,2.583,4.464Zm9.613-25.569,2.83-4.918,5.156.008,1.031,1.783v0h0l-5.154-.008-2.83,4.918Zm34.031,1.561-2.57-4.467-5.673,0,1.031-1.786,5.673-.008,2.573,4.47-1.031,1.786Z" transform="translate(1288.919 11422.014)"/><path class="e" d="M15,6.277l-2.3,6.841-7.213.194,5.729,4.616-2,7.079L15,20.823l5.783,4.184-2-7.079,5.729-4.616L17.3,13.118,15,6.277M15,0l3.75,11.157,11.25.3-8.932,7.2L24.271,30,15,23.292,5.729,30l3.2-11.343L0,11.459l11.25-.3Z" transform="translate(474.669 981.843)"/></g></svg>