<svg xmlns="http://www.w3.org/2000/svg" xmlns:xlink="http://www.w3.org/1999/xlink" width="27" height="24" viewBox="0 0 27 24"><defs><style>.a{fill:#ffb940;}.b{fill:#fff;}.c{fill:none;}.d,.e{stroke:none;}.e{fill:#ffb940;}.f{filter:url(#a);}</style><filter id="a"><feOffset input="SourceAlpha"/><feGaussianBlur stdDeviation="3" result="b"/><feFlood flood-color="#f90" result="c"/><feComposite operator="out" in="SourceGraphic" in2="b"/><feComposite operator="in" in="c"/><feComposite operator="in" in2="SourceGraphic"/></filter></defs><g transform="translate(-75 -320)"><path class="a" d="M-2240-10896a5.181,5.181,0,0,1-5-5.332c0-1.337.384-1.974,2.514-5.506l.027-.045c.648-1.075,1.455-2.413,2.461-4.118,1.039,1.771,1.864,3.143,2.527,4.245l.029.048c2.023,3.362,2.444,4.062,2.444,5.376A5.18,5.18,0,0,1-2240-10896Zm-3.7-6h0a4.253,4.253,0,0,0-.052.668,3.884,3.884,0,0,0,3.749,4,3.648,3.648,0,0,0,.625-.055v-1.363a2.25,2.25,0,0,1-.625.085,2.589,2.589,0,0,1-2.5-2.665,2.822,2.822,0,0,1,.079-.668Z" transform="translate(2328.5 11235.5)"/><g data-type="innerShadowGroup"><g class="f" transform="matrix(1, 0, 0, 1, 75, 320)"><g class="b" transform="translate(27 24) rotate(180)"><path class="d" d="M20.25,0,27,12,20.25,24H6.75L0,12,6.75,0Z"/><path class="d" d="M 7.334850311279297 1 L 1.147350311279297 12 L 7.334850311279297 23 L 19.6651496887207 23 L 25.8526496887207 12 L 19.6651496887207 1 L 7.334850311279297 1 M 6.75 0 L 20.25 0 L 27 12 L 20.25 24 L 6.75 24 L 0 12 L 6.75 0 Z"/></g></g><g class="c" transform="translate(102 344) rotate(180)"><path class="d" d="M20.25,0,27,12,20.25,24H6.75L0,12,6.75,0Z"/><path class="e" d="M 7.334850311279297 1 L 1.147350311279297 12 L 7.334850311279297 23 L 19.6651496887207 23 L 25.8526496887207 12 L 19.6651496887207 1 L 7.334850311279297 1 M 6.75 0 L 20.25 0 L 27 12 L 20.25 24 L 6.75 24 L 0 12 L 6.75 0 Z"/></g></g></g></svg>