<?xml version="1.0" standalone="no"?><!DOCTYPE svg PUBLIC "-//W3C//DTD SVG 1.1//EN" "http://www.w3.org/Graphics/SVG/1.1/DTD/svg11.dtd"><svg t="1629713015675" class="icon" viewBox="0 0 1024 1024" version="1.1" xmlns="http://www.w3.org/2000/svg" p-id="3165" xmlns:xlink="http://www.w3.org/1999/xlink" width="200" height="200"><defs><style type="text/css"></style></defs><path d="M436.736 238.08c-49.664 0-90.112 41.472-90.112 92.672V550.4c0 42.496 61.44 42.496 61.44 0V349.696H422.4V906.24c0 57.344 81.92 55.296 81.92 0V580.608h14.336V906.24c0 55.296 82.432 57.344 82.432 0V349.696h14.336V550.4c0 43.008 61.44 43.008 61.44 0V332.288c0-47.616-36.352-94.208-91.136-94.208H436.736zM512 217.6c39.424 0 71.168-31.744 71.168-71.168S551.424 75.264 512 75.264s-71.168 32.256-71.168 71.68S472.576 217.6 512 217.6z" p-id="3166" fill="#ffffff"></path></svg>