<svg xmlns="http://www.w3.org/2000/svg" xmlns:xlink="http://www.w3.org/1999/xlink" width="59.325" height="51.599" viewBox="0 0 59.325 51.599"><defs><style>.a{fill:rgba(255,153,0,0.35);}.b{fill:#fff;}.c{fill:none;stroke:rgba(255,185,64,0.8);}.d,.e{fill:#f90;}.d{opacity:0.6;}.e{opacity:0.9;}.f,.g{stroke:none;}.g{fill:#fff;}.h{filter:url(#f);}.i{filter:url(#d);}.j{filter:url(#a);}</style><filter id="a"><feOffset input="SourceAlpha"/><feGaussianBlur stdDeviation="5" result="b"/><feFlood flood-opacity="0.349" result="c"/><feComposite operator="out" in="SourceGraphic" in2="b"/><feComposite operator="in" in="c"/><feComposite operator="in" in2="SourceGraphic"/></filter><filter id="d" x="5.001" y="10.531" width="53.322" height="35.872" filterUnits="userSpaceOnUse"><feOffset input="SourceAlpha"/><feGaussianBlur stdDeviation="3" result="e"/><feFlood flood-color="#f90"/><feComposite operator="in" in2="e"/><feComposite in="SourceGraphic"/></filter><filter id="f" x="7.464" y="1.197" width="47.307" height="47.307" filterUnits="userSpaceOnUse"><feOffset input="SourceAlpha"/><feGaussianBlur stdDeviation="3" result="g"/><feFlood flood-color="#f90"/><feComposite operator="in" in2="g"/><feComposite in="SourceGraphic"/></filter></defs><g transform="translate(-459.918 -971.244)"><g data-type="innerShadowGroup"><path class="a" d="M42.87,0,57.16,24.956,42.87,49.912H14.29L0,24.956,14.29,0Z" transform="translate(518.16 1022) rotate(180)"/><g class="j" transform="matrix(1, 0, 0, 1, 459.92, 971.24)"><path class="b" d="M42.87,0,57.16,24.956,42.87,49.912H14.29L0,24.956,14.29,0Z" transform="translate(58.24 50.76) rotate(180)"/></g><path class="c" d="M42.87,0,57.16,24.956,42.87,49.912H14.29L0,24.956,14.29,0Z" transform="translate(518.16 1022) rotate(180)"/></g><path class="d" d="M-816.8-10404.086l1.031-1.786,2.83,4.915,5.156-.006-1.033,1.786-5.154.006Zm26.821,4.687-1.033-1.786,5.673,0,2.573-4.466,1.031,1.786-2.573,4.466Zm15.663-20.883h0v0l2.583-4.461-2.843-4.907h2.064l2.843,4.907-2.583,4.464Zm-52.1,0-2.583-4.464,2.843-4.907h2.061l-2.84,4.907,2.583,4.464Zm9.613-25.569,2.83-4.918,5.156.008,1.031,1.783v0h0l-5.154-.008-2.83,4.918Zm34.031,1.561-2.57-4.467-5.673,0,1.031-1.786,5.673-.008,2.573,4.47-1.031,1.786Z" transform="translate(1288.919 11422.014)"/><g class="i" transform="matrix(1, 0, 0, 1, 459.92, 971.24)"><path class="b" d="M36.733-8944.933v.095h-6v8h-2v-12h2v2h4.1l-6.1-6.094,1.326-1.326,16.549,16.549-1.326,1.323Zm18.767,7.648-2.088-1.729,8.36-2.119,2.283,1.679-8.553,2.169Z" transform="translate(-14.73 8973.79)"/></g><g class="h" transform="matrix(1, 0, 0, 1, 459.92, 971.24)"><g class="e" transform="translate(16.46 18.15) rotate(-45)"><path class="f" d="M 10.24963283538818 28.43710136413574 L 0.9999819397926331 22.9293270111084 L 1.000009894371033 1.000005602836609 L 10.24966049194336 0.9999974370002747 L 10.24963283538818 28.43710136413574 Z"/><path class="g" d="M 9.249659538269043 1.999998092651367 L 2.000008583068848 2.000003814697266 L 1.999982833862305 22.36091995239258 L 9.249634742736816 26.67778205871582 L 9.249659538269043 1.999998092651367 M 11.24966144561768 -3.814697265625e-06 L 11.24963092803955 30.1964168548584 L -1.9073486328125e-05 23.49772644042969 L 1.1444091796875e-05 5.7220458984375e-06 L 11.24966144561768 -3.814697265625e-06 Z"/></g></g></g></svg>