<svg xmlns="http://www.w3.org/2000/svg" xmlns:xlink="http://www.w3.org/1999/xlink" width="59.325" height="51.599"
  viewBox="0 0 59.325 51.599">
  <defs>
    <style>
      .a {
        fill: rgba(0, 0, 0, 0.3);
      }

      .b {
        fill: #fff;
      }

      .c {
        fill: none;
        stroke: rgba(255, 185, 64, 0.51);
      }

      .d {
        fill: #f90;
        opacity: 0.6;
      }

      .e {
        fill: #c9c9c9;
      }

      .f {
        filter: url(#a);
      }
    </style>
    <filter id="a">
      <feOffset input="SourceAlpha" />
      <feGaussianBlur stdDeviation="5" result="b" />
      <feFlood flood-opacity="0.302" result="c" />
      <feComposite operator="out" in="SourceGraphic" in2="b" />
      <feComposite operator="in" in="c" />
      <feComposite operator="in" in2="SourceGraphic" />
    </filter>
  </defs>
  <g transform="translate(-459.918 -971.244)">
    <g data-type="innerShadowGroup">
      <path class="a" d="M42.87,0,57.16,24.956,42.87,49.912H14.29L0,24.956,14.29,0Z"
        transform="translate(518.16 1022) rotate(180)" />
      <g class="f" transform="matrix(1, 0, 0, 1, 459.92, 971.24)">
        <path class="b" d="M42.87,0,57.16,24.956,42.87,49.912H14.29L0,24.956,14.29,0Z"
          transform="translate(58.24 50.76) rotate(180)" />
      </g>
      <path class="c" d="M42.87,0,57.16,24.956,42.87,49.912H14.29L0,24.956,14.29,0Z"
        transform="translate(518.16 1022) rotate(180)" />
    </g>
    <path class="d"
      d="M-816.8-10404.086l1.031-1.786,2.83,4.915,5.156-.006-1.033,1.786-5.154.006Zm26.821,4.687-1.033-1.786,5.673,0,2.573-4.466,1.031,1.786-2.573,4.466Zm15.663-20.883h0v0l2.583-4.461-2.843-4.907h2.064l2.843,4.907-2.583,4.464Zm-52.1,0-2.583-4.464,2.843-4.907h2.061l-2.84,4.907,2.583,4.464Zm9.613-25.569,2.83-4.918,5.156.008,1.031,1.783v0h0l-5.154-.008-2.83,4.918Zm34.031,1.561-2.57-4.467-5.673,0,1.031-1.786,5.673-.008,2.573,4.47-1.031,1.786Z"
      transform="translate(1288.919 11422.014)" />
    <g transform="translate(-317.919 888.825)">
      <path class="e"
        d="M243-9717.779h-2v-22l11,8v14h-2v-12.98l-7-5.091v18.071Zm-4,0h-2v-26.666l-11,5.869v5.8h-2v-7l15-8v30Z"
        transform="translate(570.999 9839.999)" />
      <rect class="e" width="2" height="3" transform="translate(804 101.221)" />
      <rect class="e" width="3" height="2" transform="translate(816 111.221)" />
      <path class="e"
        d="M198.756-9739.983v-3.5h3.5v-2h-3.5v-3.5h-2v3.5h-3.5v2h3.5v3.5h2m2,2h-6v-3.5h-3.5v-6h3.5v-3.5h6v3.5h3.5v6h-3.5Z"
        transform="translate(600.744 9860.203)" />
    </g>
  </g>
</svg>