<svg xmlns="http://www.w3.org/2000/svg" xmlns:xlink="http://www.w3.org/1999/xlink" width="59.325" height="51.599"
  viewBox="0 0 59.325 51.599">
  <defs>
    <style>
      .a {
        fill: rgba(0, 0, 0, 0.3);
      }

      .b {
        fill: #fff;
      }

      .c {
        fill: none;
        stroke: rgba(255, 185, 64, 0.51);
      }

      .d {
        fill: #f90;
        opacity: 0.6;
      }

      .e {
        fill: #c9c9c9;
      }

      .f {
        filter: url(#a);
      }
    </style>
    <filter id="a">
      <feOffset input="SourceAlpha" />
      <feGaussianBlur stdDeviation="5" result="b" />
      <feFlood flood-opacity="0.302" result="c" />
      <feComposite operator="out" in="SourceGraphic" in2="b" />
      <feComposite operator="in" in="c" />
      <feComposite operator="in" in2="SourceGraphic" />
    </filter>
  </defs>
  <g transform="translate(-459.918 -971.244)">
    <g data-type="innerShadowGroup">
      <path class="a" d="M42.87,0,57.16,24.956,42.87,49.912H14.29L0,24.956,14.29,0Z"
        transform="translate(518.16 1022) rotate(180)" />
      <g class="f" transform="matrix(1, 0, 0, 1, 459.92, 971.24)">
        <path class="b" d="M42.87,0,57.16,24.956,42.87,49.912H14.29L0,24.956,14.29,0Z"
          transform="translate(58.24 50.76) rotate(180)" />
      </g>
      <path class="c" d="M42.87,0,57.16,24.956,42.87,49.912H14.29L0,24.956,14.29,0Z"
        transform="translate(518.16 1022) rotate(180)" />
    </g>
    <path class="d"
      d="M-816.8-10404.086l1.031-1.786,2.83,4.915,5.156-.006-1.033,1.786-5.154.006Zm26.821,4.687-1.033-1.786,5.673,0,2.573-4.466,1.031,1.786-2.573,4.466Zm15.663-20.883h0v0l2.583-4.461-2.843-4.907h2.064l2.843,4.907-2.583,4.464Zm-52.1,0-2.583-4.464,2.843-4.907h2.061l-2.84,4.907,2.583,4.464Zm9.613-25.569,2.83-4.918,5.156.008,1.031,1.783v0h0l-5.154-.008-2.83,4.918Zm34.031,1.561-2.57-4.467-5.673,0,1.031-1.786,5.673-.008,2.573,4.47-1.031,1.786Z"
      transform="translate(1288.919 11422.014)" />
    <path class="e"
      d="M56.589-9725.566a11.939,11.939,0,0,1-3.659-8.174h1.848a10.126,10.126,0,0,0,2.964,6.718,10.085,10.085,0,0,0,7.178,2.974,10.087,10.087,0,0,0,7.181-2.974,10.1,10.1,0,0,0,2.974-7.181,10.106,10.106,0,0,0-2.974-7.181,10.091,10.091,0,0,0-7.181-2.974c-.14,0-.286,0-.46.01v-1.848c.174,0,.323-.008.46-.008a11.919,11.919,0,0,1,8.485,3.515,11.921,11.921,0,0,1,3.515,8.485,11.921,11.921,0,0,1-3.515,8.485,11.919,11.919,0,0,1-8.485,3.515A11.936,11.936,0,0,1,56.589-9725.566ZM52-9735.625a12.862,12.862,0,0,1,3.439-7.467A12.889,12.889,0,0,1,62.622-9747l.492,2.959a10.02,10.02,0,0,0-8.157,8.97ZM53-9742H51a6.008,6.008,0,0,1,6-6v2a4.006,4.006,0,0,0-4,4l0,0Zm-4,0H47a10.013,10.013,0,0,1,10-10v2a8.01,8.01,0,0,0-8,8l0,0Z"
      transform="translate(427.62 10734.147)" />
  </g>
</svg>