<svg xmlns="http://www.w3.org/2000/svg" xmlns:xlink="http://www.w3.org/1999/xlink" width="59.325" height="51.599" viewBox="0 0 59.325 51.599"><defs><style>.a{fill:rgba(255,153,0,0.35);}.b{fill:#fff;}.c{fill:none;stroke:rgba(255,185,64,0.8);}.d,.e{fill:#f90;}.d{opacity:0.7;}.f{filter:url(#h);}.g{filter:url(#f);}.h{filter:url(#d);}.i{filter:url(#a);}</style><filter id="a"><feOffset input="SourceAlpha"/><feGaussianBlur stdDeviation="5" result="b"/><feFlood flood-opacity="0.349" result="c"/><feComposite operator="out" in="SourceGraphic" in2="b"/><feComposite operator="in" in="c"/><feComposite operator="in" in2="SourceGraphic"/></filter><filter id="d" x="11.632" y="7.7" width="41.991" height="42.001" filterUnits="userSpaceOnUse"><feOffset input="SourceAlpha"/><feGaussianBlur stdDeviation="3" result="e"/><feFlood flood-color="#f90"/><feComposite operator="in" in2="e"/><feComposite in="SourceGraphic"/></filter><filter id="f" x="10.701" y="6.903" width="29.116" height="29.929" filterUnits="userSpaceOnUse"><feOffset input="SourceAlpha"/><feGaussianBlur stdDeviation="3" result="g"/><feFlood flood-color="#f90"/><feComposite operator="in" in2="g"/><feComposite in="SourceGraphic"/></filter><filter id="h" x="5.702" y="1.903" width="27.998" height="28" filterUnits="userSpaceOnUse"><feOffset input="SourceAlpha"/><feGaussianBlur stdDeviation="3" result="i"/><feFlood flood-color="#f90"/><feComposite operator="in" in2="i"/><feComposite in="SourceGraphic"/></filter></defs><g transform="translate(-459.918 -971.244)"><g data-type="innerShadowGroup"><path class="a" d="M42.87,0,57.16,24.956,42.87,49.912H14.29L0,24.956,14.29,0Z" transform="translate(518.16 1022) rotate(180)"/><g class="i" transform="matrix(1, 0, 0, 1, 459.92, 971.24)"><path class="b" d="M42.87,0,57.16,24.956,42.87,49.912H14.29L0,24.956,14.29,0Z" transform="translate(58.24 50.76) rotate(180)"/></g><path class="c" d="M42.87,0,57.16,24.956,42.87,49.912H14.29L0,24.956,14.29,0Z" transform="translate(518.16 1022) rotate(180)"/></g><path class="d" d="M-816.8-10404.086l1.031-1.786,2.83,4.915,5.156-.006-1.033,1.786-5.154.006Zm26.821,4.687-1.033-1.786,5.673,0,2.573-4.466,1.031,1.786-2.573,4.466Zm15.663-20.883h0v0l2.583-4.461-2.843-4.907h2.064l2.843,4.907-2.583,4.464Zm-52.1,0-2.583-4.464,2.843-4.907h2.061l-2.84,4.907,2.583,4.464Zm9.613-25.569,2.83-4.918,5.156.008,1.031,1.783v0h0l-5.154-.008-2.83,4.918Zm34.031,1.561-2.57-4.467-5.673,0,1.031-1.786,5.673-.008,2.573,4.47-1.031,1.786Z" transform="translate(1288.919 11422.014)"/><g class="h" transform="matrix(1, 0, 0, 1, 459.92, 971.24)"><path class="b" d="M74-9715a11.937,11.937,0,0,1-8.332-3.364,11.935,11.935,0,0,1-3.659-8.175h1.847a10.118,10.118,0,0,0,2.965,6.718A10.086,10.086,0,0,0,74-9716.846a10.086,10.086,0,0,0,7.179-2.975A10.087,10.087,0,0,0,84.155-9727a10.1,10.1,0,0,0-2.975-7.182A10.09,10.09,0,0,0,74-9737.154c-.141,0-.287,0-.461.011v-1.848c.173-.006.323-.009.461-.009a11.921,11.921,0,0,1,8.485,3.515A11.923,11.923,0,0,1,86-9727a11.923,11.923,0,0,1-3.514,8.485A11.926,11.926,0,0,1,74-9715Z" transform="translate(-41.38 9755.7)"/></g><g class="g" transform="matrix(1, 0, 0, 1, 459.92, 971.24)"><path class="e" d="M53.037-9735.868h0l-2.957-.555a12.874,12.874,0,0,1,3.437-7.466A12.893,12.893,0,0,1,60.7-9747.8l.493,2.959a10.017,10.017,0,0,0-8.158,8.969Z" transform="translate(-30.38 9763.7)"/></g><g class="f" transform="matrix(1, 0, 0, 1, 459.92, 971.24)"><path class="e" d="M54-9741H52a6.006,6.006,0,0,1,6-6v2a4,4,0,0,0-4,4l0,0Zm-4,0H48a10.011,10.011,0,0,1,10-10v2a8.008,8.008,0,0,0-8,8l0,0Z" transform="translate(-33.3 9761.9)"/></g></g></svg>