<svg xmlns="http://www.w3.org/2000/svg" xmlns:xlink="http://www.w3.org/1999/xlink" width="59.325" height="51.599" viewBox="0 0 59.325 51.599"><defs><style>.a{fill:rgba(255,153,0,0.35);}.b{fill:#fff;}.c{fill:none;stroke:rgba(255,185,64,0.8);}.d,.e{fill:#f90;}.d{opacity:0.6;}.f{filter:url(#h);}.g{filter:url(#f);}.h{filter:url(#d);}.i{filter:url(#a);}</style><filter id="a"><feOffset input="SourceAlpha"/><feGaussianBlur stdDeviation="5" result="b"/><feFlood flood-opacity="0.349" result="c"/><feComposite operator="out" in="SourceGraphic" in2="b"/><feComposite operator="in" in="c"/><feComposite operator="in" in2="SourceGraphic"/></filter><filter id="d" x="4.66" y="5.557" width="47.374" height="43.994" filterUnits="userSpaceOnUse"><feOffset input="SourceAlpha"/><feGaussianBlur stdDeviation="3" result="e"/><feFlood flood-color="#f90"/><feComposite operator="in" in2="e"/><feComposite in="SourceGraphic"/></filter><filter id="f" x="9.492" y="9.808" width="33.339" height="31.498" filterUnits="userSpaceOnUse"><feOffset input="SourceAlpha"/><feGaussianBlur stdDeviation="3" result="g"/><feFlood flood-color="#f90"/><feComposite operator="in" in2="g"/><feComposite in="SourceGraphic"/></filter><filter id="h" x="27.141" y="2.06" width="26.389" height="25.477" filterUnits="userSpaceOnUse"><feOffset input="SourceAlpha"/><feGaussianBlur stdDeviation="3" result="i"/><feFlood flood-color="#f90"/><feComposite operator="in" in2="i"/><feComposite in="SourceGraphic"/></filter></defs><g transform="translate(-459.918 -971.244)"><g data-type="innerShadowGroup"><path class="a" d="M42.87,0,57.16,24.956,42.87,49.912H14.29L0,24.956,14.29,0Z" transform="translate(518.16 1022) rotate(180)"/><g class="i" transform="matrix(1, 0, 0, 1, 459.92, 971.24)"><path class="b" d="M42.87,0,57.16,24.956,42.87,49.912H14.29L0,24.956,14.29,0Z" transform="translate(58.24 50.76) rotate(180)"/></g><path class="c" d="M42.87,0,57.16,24.956,42.87,49.912H14.29L0,24.956,14.29,0Z" transform="translate(518.16 1022) rotate(180)"/></g><path class="d" d="M-816.8-10404.086l1.031-1.786,2.83,4.915,5.156-.006-1.033,1.786-5.154.006Zm26.821,4.687-1.033-1.786,5.673,0,2.573-4.466,1.031,1.786-2.573,4.466Zm15.663-20.883h0v0l2.583-4.461-2.843-4.907h2.064l2.843,4.907-2.583,4.464Zm-52.1,0-2.583-4.464,2.843-4.907h2.061l-2.84,4.907,2.583,4.464Zm9.613-25.569,2.83-4.918,5.156.008,1.031,1.783v0h0l-5.154-.008-2.83,4.918Zm34.031,1.561-2.57-4.467-5.673,0,1.031-1.786,5.673-.008,2.573,4.47-1.031,1.786Z" transform="translate(1288.919 11422.014)"/><g transform="translate(473.578 982.304)"><g class="h" transform="matrix(1, 0, 0, 1, -13.66, -11.06)"><path class="b" d="M-332.811-9910.568l-2.271-4h-11.071l-6.252-11,6.252-11h12.5l6.252,11-2,3.519h3.11l3.262,5.738-3.262,5.737Zm-17.292-14.994,5.112,9h9.064l3.116-5.48h1.109l2-3.519-5.112-9H-344.99Z" transform="translate(366.06 9951.12)"/></g><g class="g" transform="matrix(1, 0, 0, 1, -13.66, -11.06)"><path class="e" d="M11.5,0l3.835,6.749L11.5,13.5H3.835L0,6.749,3.835,0Z" transform="translate(33.83 32.31) rotate(-180)"/></g><g class="f" transform="matrix(1, 0, 0, 1, -13.66, -11.06)"><path class="e" d="M3.144,2,2.169,3.738l.975,1.738h2.1l.975-1.738L5.245,2h-2.1M2.1,0H6.292l2.1,3.738-2.1,3.738H2.1L0,3.738Z" transform="translate(44.53 18.54) rotate(-180)"/></g></g></g></svg>