<svg xmlns="http://www.w3.org/2000/svg" xmlns:xlink="http://www.w3.org/1999/xlink" width="59.325" height="51.599" viewBox="0 0 59.325 51.599"><defs><style>.a{fill:rgba(255,153,0,0.35);}.b{fill:#fff;}.c{fill:none;stroke:rgba(255,185,64,0.8);}.d,.e{fill:#f90;}.d{opacity:0.7;}.e{opacity:0.9;}.f,.g{stroke:none;}.g{fill:#fff;}.h{filter:url(#f);}.i{filter:url(#d);}.j{filter:url(#a);}</style><filter id="a"><feOffset input="SourceAlpha"/><feGaussianBlur stdDeviation="5" result="b"/><feFlood flood-opacity="0.349" result="c"/><feComposite operator="out" in="SourceGraphic" in2="b"/><feComposite operator="in" in="c"/><feComposite operator="in" in2="SourceGraphic"/></filter><filter id="d" x="6.663" y="2.297" width="46" height="47.001" filterUnits="userSpaceOnUse"><feOffset input="SourceAlpha"/><feGaussianBlur stdDeviation="3" result="e"/><feFlood flood-color="#f90"/><feComposite operator="in" in2="e"/><feComposite in="SourceGraphic"/></filter><filter id="f" x="12.481" y="16.3" width="34.003" height="30.001" filterUnits="userSpaceOnUse"><feOffset input="SourceAlpha"/><feGaussianBlur stdDeviation="3" result="g"/><feFlood flood-color="#f90"/><feComposite operator="in" in2="g"/><feComposite in="SourceGraphic"/></filter></defs><g transform="translate(-459.918 -971.244)"><g data-type="innerShadowGroup"><path class="a" d="M42.87,0,57.16,24.956,42.87,49.912H14.29L0,24.956,14.29,0Z" transform="translate(518.16 1022) rotate(180)"/><g class="j" transform="matrix(1, 0, 0, 1, 459.92, 971.24)"><path class="b" d="M42.87,0,57.16,24.956,42.87,49.912H14.29L0,24.956,14.29,0Z" transform="translate(58.24 50.76) rotate(180)"/></g><path class="c" d="M42.87,0,57.16,24.956,42.87,49.912H14.29L0,24.956,14.29,0Z" transform="translate(518.16 1022) rotate(180)"/></g><path class="d" d="M-816.8-10404.086l1.031-1.786,2.83,4.915,5.156-.006-1.033,1.786-5.154.006Zm26.821,4.687-1.033-1.786,5.673,0,2.573-4.466,1.031,1.786-2.573,4.466Zm15.663-20.883h0v0l2.583-4.461-2.843-4.907h2.064l2.843,4.907-2.583,4.464Zm-52.1,0-2.583-4.464,2.843-4.907h2.061l-2.84,4.907,2.583,4.464Zm9.613-25.569,2.83-4.918,5.156.008,1.031,1.783v0h0l-5.154-.008-2.83,4.918Zm34.031,1.561-2.57-4.467-5.673,0,1.031-1.786,5.673-.008,2.573,4.47-1.031,1.786Z" transform="translate(1288.919 11422.014)"/><g transform="translate(-430.418 861.543)"><g class="i" transform="matrix(1, 0, 0, 1, 890.34, 109.7)"><path class="b" d="M653.978-9751.7v-2h20v2Zm21.24-6.659-1.6-1.19a11.885,11.885,0,0,0,2.361-7.15,11.918,11.918,0,0,0-3.515-8.483,11.918,11.918,0,0,0-8.488-3.52,11.907,11.907,0,0,0-8.483,3.52,11.9,11.9,0,0,0-3.513,8.483,11.874,11.874,0,0,0,2.359,7.15l-1.605,1.19a13.872,13.872,0,0,1-2.757-8.341,13.9,13.9,0,0,1,4.1-9.9,13.9,13.9,0,0,1,9.9-4.1,13.912,13.912,0,0,1,9.9,4.1,13.912,13.912,0,0,1,4.1,9.9,13.892,13.892,0,0,1-2.754,8.341Zm-7.033-9.254,1.333-2.335,1.576.913-1.333,2.335Zm-11.321-1.409,1.576-.913,1.326,2.322-1.576.913Zm6.2.513v-2.665h1.816v2.665Zm.911-6.19a8.01,8.01,0,0,0-6.934,4.009l-1.735-1a10,10,0,0,1,8.67-5.01,9.995,9.995,0,0,1,8.667,5.013l-1.738,1A8,8,0,0,0,663.978-9774.7Z" transform="translate(-634.31 9792)"/></g><g class="h" transform="matrix(1, 0, 0, 1, 890.34, 109.7)"><g class="e" transform="translate(-150.18 14757.29)"><path class="f" d="M 186.6662139892578 -14720.994140625 L 172.6633758544922 -14720.994140625 L 172.6633758544922 -14725.9931640625 C 172.6633758544922 -14727.7666015625 173.5828857421875 -14729.3232421875 175.2525177001953 -14730.376953125 L 175.2583465576172 -14730.380859375 L 175.2641296386719 -14730.384765625 C 175.697265625 -14730.666015625 176.586181640625 -14730.9951171875 177.6658325195312 -14730.9951171875 L 181.6637573242188 -14730.9951171875 C 184.422119140625 -14730.9951171875 186.6662139892578 -14728.7509765625 186.6662139892578 -14725.9931640625 L 186.6662139892578 -14720.994140625 Z"/><path class="g" d="M 185.6662139892578 -14721.994140625 L 185.6662139892578 -14725.9931640625 C 185.6662139892578 -14728.2001953125 183.8707122802734 -14729.9951171875 181.6637573242188 -14729.9951171875 L 177.6658325195312 -14729.9951171875 C 176.8646087646484 -14729.9951171875 176.141845703125 -14729.7626953125 175.8093719482422 -14729.5458984375 L 175.7861633300781 -14729.53125 C 174.4172668457031 -14728.6669921875 173.6633758544922 -14727.4111328125 173.6633758544922 -14725.9931640625 L 173.6633758544922 -14721.994140625 L 185.6662139892578 -14721.994140625 M 187.6662139892578 -14719.994140625 L 171.6633758544922 -14719.994140625 L 171.6633758544922 -14725.9931640625 C 171.6633758544922 -14728.1240234375 172.7750244140625 -14729.99609375 174.7188720703125 -14731.22265625 C 175.3794708251953 -14731.65234375 176.4828186035156 -14731.9951171875 177.6658325195312 -14731.9951171875 L 181.6637573242188 -14731.9951171875 C 184.9774932861328 -14731.9951171875 187.6662139892578 -14729.306640625 187.6662139892578 -14725.9931640625 L 187.6662139892578 -14719.994140625 Z"/></g></g></g></g></svg>