<svg xmlns="http://www.w3.org/2000/svg" xmlns:xlink="http://www.w3.org/1999/xlink" width="59.325" height="51.599" viewBox="0 0 59.325 51.599"><defs><style>.a{fill:rgba(0,0,0,0.3);}.b{fill:#fff;}.c,.e{fill:none;}.c{stroke:rgba(255,185,64,0.51);}.d{fill:#f90;opacity:0.6;}.f{fill:#c9c9c9;}.g,.h{stroke:none;}.h{fill:#c9c9c9;}.i{filter:url(#a);}</style><filter id="a"><feOffset input="SourceAlpha"/><feGaussianBlur stdDeviation="5" result="b"/><feFlood flood-opacity="0.302" result="c"/><feComposite operator="out" in="SourceGraphic" in2="b"/><feComposite operator="in" in="c"/><feComposite operator="in" in2="SourceGraphic"/></filter></defs><g transform="translate(-459.918 -971.244)"><g data-type="innerShadowGroup"><path class="a" d="M42.87,0,57.16,24.956,42.87,49.912H14.29L0,24.956,14.29,0Z" transform="translate(518.16 1022) rotate(180)"/><g class="i" transform="matrix(1, 0, 0, 1, 459.92, 971.24)"><path class="b" d="M42.87,0,57.16,24.956,42.87,49.912H14.29L0,24.956,14.29,0Z" transform="translate(58.24 50.76) rotate(180)"/></g><path class="c" d="M42.87,0,57.16,24.956,42.87,49.912H14.29L0,24.956,14.29,0Z" transform="translate(518.16 1022) rotate(180)"/></g><path class="d" d="M-816.8-10404.086l1.031-1.786,2.83,4.915,5.156-.006-1.033,1.786-5.154.006Zm26.821,4.687-1.033-1.786,5.673,0,2.573-4.466,1.031,1.786-2.573,4.466Zm15.663-20.883h0v0l2.583-4.461-2.843-4.907h2.064l2.843,4.907-2.583,4.464Zm-52.1,0-2.583-4.464,2.843-4.907h2.061l-2.84,4.907,2.583,4.464Zm9.613-25.569,2.83-4.918,5.156.008,1.031,1.783v0h0l-5.154-.008-2.83,4.918Zm34.031,1.561-2.57-4.467-5.673,0,1.031-1.786,5.673-.008,2.573,4.47-1.031,1.786Z" transform="translate(1288.919 11422.014)"/><g transform="translate(-430.418 861.543)"><g class="e" transform="translate(740.154 14866.996)"><path class="g" d="M169.847-14716.994v-2h20v2Zm1.816-3v-6a6,6,0,0,1,6-6h4a6,6,0,0,1,6,6v6Zm12.393-12.914,1.331-2.334,1.576.913-1.331,2.334Zm-11.321-1.409,1.576-.914,1.324,2.323-1.576.913Zm6.2.514v-2.666h1.816v2.666Z"/><path class="h" d="M 185.6662139892578 -14721.994140625 L 185.6662139892578 -14725.9931640625 C 185.6662139892578 -14728.2001953125 183.8707122802734 -14729.9951171875 181.6637573242188 -14729.9951171875 L 177.6658325195312 -14729.9951171875 C 175.4588623046875 -14729.9951171875 173.6633758544922 -14728.2001953125 173.6633758544922 -14725.9931640625 L 173.6633758544922 -14721.994140625 L 185.6662139892578 -14721.994140625 M 189.8445434570312 -14716.994140625 L 169.8474731445312 -14716.994140625 L 169.8474731445312 -14718.9951171875 L 189.8445434570312 -14718.9951171875 L 189.8445434570312 -14716.994140625 Z M 187.6662139892578 -14719.994140625 L 171.6633758544922 -14719.994140625 L 171.6633758544922 -14725.9931640625 C 171.6633758544922 -14729.306640625 174.3520812988281 -14731.9951171875 177.6658325195312 -14731.9951171875 L 181.6637573242188 -14731.9951171875 C 184.9774932861328 -14731.9951171875 187.6662139892578 -14729.306640625 187.6662139892578 -14725.9931640625 L 187.6662139892578 -14719.994140625 Z M 185.6321105957031 -14731.9951171875 L 184.0565948486328 -14732.908203125 L 185.3880157470703 -14735.2421875 L 186.9635162353516 -14734.3291015625 L 185.6321105957031 -14731.9951171875 Z M 174.0599212646484 -14731.9951171875 L 172.7359008789062 -14734.3173828125 L 174.3114013671875 -14735.2314453125 L 175.6354217529297 -14732.908203125 L 174.0599212646484 -14731.9951171875 Z M 180.7539672851562 -14733.8037109375 L 178.9380645751953 -14733.8037109375 L 178.9380645751953 -14736.4697265625 L 180.7539672851562 -14736.4697265625 L 180.7539672851562 -14733.8037109375 Z"/></g><path class="f" d="M1557.243-15780.658h0l-1.6-1.19A11.886,11.886,0,0,0,1558-15789a11.919,11.919,0,0,0-3.514-8.483A11.925,11.925,0,0,0,1546-15801a11.907,11.907,0,0,0-8.483,3.519A11.907,11.907,0,0,0,1534-15789a11.881,11.881,0,0,0,2.359,7.151l-1.605,1.19A13.88,13.88,0,0,1,1532-15789a13.907,13.907,0,0,1,4.1-9.9,13.91,13.91,0,0,1,9.9-4.1,13.91,13.91,0,0,1,9.9,4.1,13.909,13.909,0,0,1,4.1,9.9,13.891,13.891,0,0,1-2.754,8.342Z" transform="translate(-626 15924)"/><path class="f" d="M1540-15792a8.008,8.008,0,0,0-6.934,4.008l-1.736-1a10,10,0,0,1,8.67-5.01,9.993,9.993,0,0,1,8.667,5.012l-1.736,1A8.006,8.006,0,0,0,1540-15792Z" transform="translate(-620 15919)"/></g></g></svg>