<svg xmlns="http://www.w3.org/2000/svg" xmlns:xlink="http://www.w3.org/1999/xlink" width="16.97" height="14.75" viewBox="0 0 16.97 14.75"><defs><style>.a{fill:#fff;}.b{fill:none;}.c,.d{stroke:none;}.d{fill:rgba(255,255,255,0.69);}.e{filter:url(#a);}</style><filter id="a"><feOffset input="SourceAlpha"/><feGaussianBlur stdDeviation="3" result="b"/><feFlood flood-color="#fc0" result="c"/><feComposite operator="out" in="SourceGraphic" in2="b"/><feComposite operator="in" in="c"/><feComposite operator="in" in2="SourceGraphic"/></filter></defs><g transform="translate(-220.376 -95.952)"><g data-type="innerShadowGroup"><g class="e" transform="matrix(1, 0, 0, 1, 220.38, 95.95)"><g class="a" transform="translate(16.62 14.45) rotate(-180)"><path class="c" d="M12.209,0l4.07,7.075-4.07,7.075H4.07L0,7.075,4.07,0Z"/><path class="c" d="M 4.069535255432129 -5.7220458984375e-06 L -3.814697265625e-06 7.07475471496582 L 4.069535255432129 14.14950466156006 L 12.20861530303955 14.14950466156006 L 16.27814483642578 7.07475471496582 L 12.20861530303955 -5.7220458984375e-06 L 4.069535255432129 -5.7220458984375e-06 M 3.896005630493164 -0.3000049591064453 L 12.38214492797852 -0.3000049591064453 L 16.62423515319824 7.07475471496582 L 12.38214492797852 14.44950485229492 L 3.896005630493164 14.44950485229492 L -0.3460941314697266 7.07475471496582 L 3.896005630493164 -0.3000049591064453 Z"/></g></g><g class="b" transform="translate(237 110.401) rotate(-180)"><path class="c" d="M12.209,0l4.07,7.075-4.07,7.075H4.07L0,7.075,4.07,0Z"/><path class="d" d="M 4.069535255432129 -5.7220458984375e-06 L -3.814697265625e-06 7.07475471496582 L 4.069535255432129 14.14950466156006 L 12.20861530303955 14.14950466156006 L 16.27814483642578 7.07475471496582 L 12.20861530303955 -5.7220458984375e-06 L 4.069535255432129 -5.7220458984375e-06 M 3.896005630493164 -0.3000049591064453 L 12.38214492797852 -0.3000049591064453 L 16.62423515319824 7.07475471496582 L 12.38214492797852 14.44950485229492 L 3.896005630493164 14.44950485229492 L -0.3460941314697266 7.07475471496582 L 3.896005630493164 -0.3000049591064453 Z"/></g></g><path class="a" d="M5.351,4.851h-1V.5H0v-1H5.351Z" transform="translate(229.432 100.002) rotate(45)"/><path class="a" d="M5.351,4.851h-1V.5H0v-1H5.351Z" transform="translate(225.861 100.002) rotate(45)"/></g></svg>