<svg xmlns="http://www.w3.org/2000/svg" xmlns:xlink="http://www.w3.org/1999/xlink" width="59.325" height="51.599" viewBox="0 0 59.325 51.599"><defs><style>.a{fill:rgba(255,153,0,0.35);}.b{fill:#fff;}.c{fill:none;stroke:rgba(255,185,64,0.8);}.d,.e{fill:#f90;}.d{opacity:0.7;}.f{filter:url(#f);}.g{filter:url(#d);}.h{filter:url(#a);}</style><filter id="a"><feOffset input="SourceAlpha"/><feGaussianBlur stdDeviation="5" result="b"/><feFlood flood-opacity="0.349" result="c"/><feComposite operator="out" in="SourceGraphic" in2="b"/><feComposite operator="in" in="c"/><feComposite operator="in" in2="SourceGraphic"/></filter><filter id="d" x="5.686" y="3.051" width="47.952" height="45.503" filterUnits="userSpaceOnUse"><feOffset input="SourceAlpha"/><feGaussianBlur stdDeviation="3" result="e"/><feFlood flood-color="#f90"/><feComposite operator="in" in2="e"/><feComposite in="SourceGraphic"/></filter><filter id="f" x="13.158" y="8.05" width="31.996" height="26.51" filterUnits="userSpaceOnUse"><feOffset input="SourceAlpha"/><feGaussianBlur stdDeviation="3" result="g"/><feFlood flood-color="#f90"/><feComposite operator="in" in2="g"/><feComposite in="SourceGraphic"/></filter></defs><g transform="translate(-459.918 -971.244)"><g data-type="innerShadowGroup"><path class="a" d="M42.87,0,57.16,24.956,42.87,49.912H14.29L0,24.956,14.29,0Z" transform="translate(518.16 1022) rotate(180)"/><g class="h" transform="matrix(1, 0, 0, 1, 459.92, 971.24)"><path class="b" d="M42.87,0,57.16,24.956,42.87,49.912H14.29L0,24.956,14.29,0Z" transform="translate(58.24 50.76) rotate(180)"/></g><path class="c" d="M42.87,0,57.16,24.956,42.87,49.912H14.29L0,24.956,14.29,0Z" transform="translate(518.16 1022) rotate(180)"/></g><path class="d" d="M-816.8-10404.086l1.031-1.786,2.83,4.915,5.156-.006-1.033,1.786-5.154.006Zm26.821,4.687-1.033-1.786,5.673,0,2.573-4.466,1.031,1.786-2.573,4.466Zm15.663-20.883h0v0l2.583-4.461-2.843-4.907h2.064l2.843,4.907-2.583,4.464Zm-52.1,0-2.583-4.464,2.843-4.907h2.061l-2.84,4.907,2.583,4.464Zm9.613-25.569,2.83-4.918,5.156.008,1.031,1.783v0h0l-5.154-.008-2.83,4.918Zm34.031,1.561-2.57-4.467-5.673,0,1.031-1.786,5.673-.008,2.573,4.47-1.031,1.786Z" transform="translate(1288.919 11422.014)"/><g transform="translate(1.074 166.296)"><g class="g" transform="matrix(1, 0, 0, 1, 458.84, 804.95)"><path class="b" d="M313.518-9057.95v-8.628l4.914-4.373h10.441v4.94H324.3l.764.963h3.853l6.179-6.474h5.785l-9.545,13.571Zm2-7.729v5.728h14.775l6.733-9.569h-1.079l-6.177,6.473H324.1l-3.942-4.961h6.717v-.942h-7.677Zm-4.592,7.729v-8.551h2v8.551Zm4.116-11.321-2.647-4.681,6.5-11.5h13l6.5,11.5-.809,1.43h-2.294l.809-1.43-5.37-9.492H320.058l-5.367,9.492,1.879,3.324-1.528,1.356v0Z" transform="translate(-296.24 9097.5)"/></g><g class="f" transform="matrix(1, 0, 0, 1, 458.84, 804.95)"><path class="e" d="M-17120.646-16557.492h0l-2.27,0-1.08-2.008,3.5-6.5h7l3.5,6.5-1.08,2.006-2.27,0h-7.3Z" transform="translate(17146.16 16583.05)"/></g><path class="b" d="M-17120.646-16557.492h0l-2.27,0-1.08-2.008,3.5-6.5h7l3.5,6.5-1.08,2.006-2.27,0,1.08-2.008-2.424-4.492h-4.609l-2.424,4.492,1.08,2.008Z" transform="translate(17605 17387.998)"/></g></g></svg>