<svg xmlns="http://www.w3.org/2000/svg" xmlns:xlink="http://www.w3.org/1999/xlink" width="59.325" height="51.599" viewBox="0 0 59.325 51.599"><defs><style>.a{fill:rgba(0,0,0,0.3);}.b{fill:#fff;}.c{fill:none;stroke:rgba(255,185,64,0.51);}.d{fill:#f90;opacity:0.6;}.e{fill:#c9c9c9;}.f{filter:url(#a);}</style><filter id="a"><feOffset input="SourceAlpha"/><feGaussianBlur stdDeviation="5" result="b"/><feFlood flood-opacity="0.302" result="c"/><feComposite operator="out" in="SourceGraphic" in2="b"/><feComposite operator="in" in="c"/><feComposite operator="in" in2="SourceGraphic"/></filter></defs><g transform="translate(-459.918 -971.244)"><g data-type="innerShadowGroup"><path class="a" d="M42.87,0,57.16,24.956,42.87,49.912H14.29L0,24.956,14.29,0Z" transform="translate(518.16 1022) rotate(180)"/><g class="f" transform="matrix(1, 0, 0, 1, 459.92, 971.24)"><path class="b" d="M42.87,0,57.16,24.956,42.87,49.912H14.29L0,24.956,14.29,0Z" transform="translate(58.24 50.76) rotate(180)"/></g><path class="c" d="M42.87,0,57.16,24.956,42.87,49.912H14.29L0,24.956,14.29,0Z" transform="translate(518.16 1022) rotate(180)"/></g><path class="d" d="M-816.8-10404.086l1.031-1.786,2.83,4.915,5.156-.006-1.033,1.786-5.154.006Zm26.821,4.687-1.033-1.786,5.673,0,2.573-4.466,1.031,1.786-2.573,4.466Zm15.663-20.883h0v0l2.583-4.461-2.843-4.907h2.064l2.843,4.907-2.583,4.464Zm-52.1,0-2.583-4.464,2.843-4.907h2.061l-2.84,4.907,2.583,4.464Zm9.613-25.569,2.83-4.918,5.156.008,1.031,1.783v0h0l-5.154-.008-2.83,4.918Zm34.031,1.561-2.57-4.467-5.673,0,1.031-1.786,5.673-.008,2.573,4.47-1.031,1.786Z" transform="translate(1288.919 11422.014)"/><g transform="translate(1.074 166.296)"><path class="e" d="M494.937,196.385H477.123v-8.626l4.914-4.374h10.439v4.941H487.9l.764.961h3.853l6.178-6.473h5.786Zm-15.814-2H493.9l6.732-9.57h-1.078l-6.178,6.473H487.7l-3.943-4.961h6.719v-.941H482.8l-3.675,3.271Z" transform="translate(-1 648.115)"/><path class="e" d="M474.531,202.764h-2v-8.549h2Z" transform="translate(1 641.736)"/><path class="e" d="M-17127.354-16554.818v0l-2.646-4.682,6.5-11.5h13l6.5,11.5-.809,1.432h-2.295l.809-1.432-5.369-9.492h-10.672l-5.369,9.492,1.879,3.326-1.527,1.355Zm6.707-2.674h0l-2.27,0-1.08-2.008,3.5-6.5h7l3.5,6.5-1.08,2.006-2.27,0,1.08-2.008-2.424-4.492h-4.609l-2.424,4.492,1.08,2.008Z" transform="translate(17605 17387.998)"/></g></g></svg>