<svg xmlns="http://www.w3.org/2000/svg" xmlns:xlink="http://www.w3.org/1999/xlink" width="59.325" height="51.599" viewBox="0 0 59.325 51.599"><defs><style>.a{fill:rgba(255,153,0,0.35);}.b{fill:#fff;}.c{fill:none;stroke:rgba(255,185,64,0.8);}.d,.e{fill:#f90;}.d{opacity:0.7;}.e{opacity:0.9;}.f,.g{stroke:none;}.g{fill:#fff;}.h{filter:url(#f);}.i{filter:url(#d);}.j{filter:url(#a);}</style><filter id="a"><feOffset input="SourceAlpha"/><feGaussianBlur stdDeviation="5" result="b"/><feFlood flood-opacity="0.349" result="c"/><feComposite operator="out" in="SourceGraphic" in2="b"/><feComposite operator="in" in="c"/><feComposite operator="in" in2="SourceGraphic"/></filter><filter id="d" x="6.66" y="2.804" width="46.001" height="45.996" filterUnits="userSpaceOnUse"><feOffset input="SourceAlpha"/><feGaussianBlur stdDeviation="3" result="e"/><feFlood flood-color="#f90"/><feComposite operator="in" in2="e"/><feComposite in="SourceGraphic"/></filter><filter id="f" x="6.66" y="2.804" width="31.003" height="30.998" filterUnits="userSpaceOnUse"><feOffset input="SourceAlpha"/><feGaussianBlur stdDeviation="3" result="g"/><feFlood flood-color="#f90"/><feComposite operator="in" in2="g"/><feComposite in="SourceGraphic"/></filter></defs><g transform="translate(-459.918 -971.244)"><g data-type="innerShadowGroup"><path class="a" d="M42.87,0,57.16,24.956,42.87,49.912H14.29L0,24.956,14.29,0Z" transform="translate(518.16 1022) rotate(180)"/><g class="j" transform="matrix(1, 0, 0, 1, 459.92, 971.24)"><path class="b" d="M42.87,0,57.16,24.956,42.87,49.912H14.29L0,24.956,14.29,0Z" transform="translate(58.24 50.76) rotate(180)"/></g><path class="c" d="M42.87,0,57.16,24.956,42.87,49.912H14.29L0,24.956,14.29,0Z" transform="translate(518.16 1022) rotate(180)"/></g><path class="d" d="M-816.8-10404.086l1.031-1.786,2.83,4.915,5.156-.006-1.033,1.786-5.154.006Zm26.821,4.687-1.033-1.786,5.673,0,2.573-4.466,1.031,1.786-2.573,4.466Zm15.663-20.883h0v0l2.583-4.461-2.843-4.907h2.064l2.843,4.907-2.583,4.464Zm-52.1,0-2.583-4.464,2.843-4.907h2.061l-2.84,4.907,2.583,4.464Zm9.613-25.569,2.83-4.918,5.156.008,1.031,1.783v0h0l-5.154-.008-2.83,4.918Zm34.031,1.561-2.57-4.467-5.673,0,1.031-1.786,5.673-.008,2.573,4.47-1.031,1.786Z" transform="translate(1288.919 11422.014)"/><g class="i" transform="matrix(1, 0, 0, 1, 459.92, 971.24)"><path class="b" d="M-15110-17188v-9h-24v9h24m0-15v-1.5h-9v1.5h9m0-7.5v-1.5h-9v1.5h9m2,24.5h-28v-13h28Zm0-15h-13v-5.5h13Zm0-7.5h-13v-5.5h13Z" transform="translate(15151.66 17225.8)"/></g><g class="h" transform="matrix(1, 0, 0, 1, 459.92, 971.24)"><g class="e" transform="translate(15151.66 17225.8)"><path class="f" d="M -15123.9990234375 -17202 L -15135.001953125 -17202 C -15135.0009765625 -17204.9375 -15133.857421875 -17207.69921875 -15131.779296875 -17209.775390625 C -15129.703125 -17211.853515625 -15126.9404296875 -17212.998046875 -15124.001953125 -17212.998046875 L -15123.9990234375 -17212.998046875 L -15123.9990234375 -17202 Z"/><path class="g" d="M -15124.9990234375 -17203 L -15124.9990234375 -17211.94921875 C -15127.2939453125 -17211.72265625 -15129.4208984375 -17210.720703125 -15131.072265625 -17209.068359375 C -15132.7236328125 -17207.41796875 -15133.7255859375 -17205.29296875 -15133.953125 -17203 L -15124.9990234375 -17203 M -15122.9990234375 -17201 L -15136.001953125 -17201 L -15136.001953125 -17201.998046875 C -15136.001953125 -17205.203125 -15134.7529296875 -17208.216796875 -15132.486328125 -17210.482421875 C -15130.220703125 -17212.75 -15127.2080078125 -17213.998046875 -15124.001953125 -17213.998046875 L -15122.9990234375 -17213.998046875 L -15122.9990234375 -17201 Z"/></g></g></g></svg>