<svg xmlns="http://www.w3.org/2000/svg" xmlns:xlink="http://www.w3.org/1999/xlink" width="59.325" height="51.599" viewBox="0 0 59.325 51.599"><defs><style>.a{fill:rgba(255,153,0,0.35);}.b{fill:#fff;}.c{fill:none;stroke:rgba(255,185,64,0.8);}.d,.e{fill:#f90;}.d{opacity:0.6;}.f{filter:url(#h);}.g{filter:url(#f);}.h{filter:url(#d);}.i{filter:url(#a);}</style><filter id="a"><feOffset input="SourceAlpha"/><feGaussianBlur stdDeviation="5" result="b"/><feFlood flood-opacity="0.349" result="c"/><feComposite operator="out" in="SourceGraphic" in2="b"/><feComposite operator="in" in="c"/><feComposite operator="in" in2="SourceGraphic"/></filter><filter id="d" x="7.581" y="5.295" width="44.779" height="40.004" filterUnits="userSpaceOnUse"><feOffset input="SourceAlpha"/><feGaussianBlur stdDeviation="3" result="e"/><feFlood flood-color="#f90"/><feComposite operator="in" in2="e"/><feComposite in="SourceGraphic"/></filter><filter id="f" x="28.173" y="22.587" width="25.489" height="25.425" filterUnits="userSpaceOnUse"><feOffset input="SourceAlpha"/><feGaussianBlur stdDeviation="3" result="g"/><feFlood flood-color="#f90"/><feComposite operator="in" in2="g"/><feComposite in="SourceGraphic"/></filter><filter id="h" x="5.664" y="2.586" width="25.489" height="25.426" filterUnits="userSpaceOnUse"><feOffset input="SourceAlpha"/><feGaussianBlur stdDeviation="3" result="i"/><feFlood flood-color="#f90"/><feComposite operator="in" in2="i"/><feComposite in="SourceGraphic"/></filter></defs><g transform="translate(-459.918 -971.244)"><g data-type="innerShadowGroup"><path class="a" d="M42.87,0,57.16,24.956,42.87,49.912H14.29L0,24.956,14.29,0Z" transform="translate(518.16 1022) rotate(180)"/><g class="i" transform="matrix(1, 0, 0, 1, 459.92, 971.24)"><path class="b" d="M42.87,0,57.16,24.956,42.87,49.912H14.29L0,24.956,14.29,0Z" transform="translate(58.24 50.76) rotate(180)"/></g><path class="c" d="M42.87,0,57.16,24.956,42.87,49.912H14.29L0,24.956,14.29,0Z" transform="translate(518.16 1022) rotate(180)"/></g><path class="d" d="M-816.8-10404.086l1.031-1.786,2.83,4.915,5.156-.006-1.033,1.786-5.154.006Zm26.821,4.687-1.033-1.786,5.673,0,2.573-4.466,1.031,1.786-2.573,4.466Zm15.663-20.883h0v0l2.583-4.461-2.843-4.907h2.064l2.843,4.907-2.583,4.464Zm-52.1,0-2.583-4.464,2.843-4.907h2.061l-2.84,4.907,2.583,4.464Zm9.613-25.569,2.83-4.918,5.156.008,1.031,1.783v0h0l-5.154-.008-2.83,4.918Zm34.031,1.561-2.57-4.467-5.673,0,1.031-1.786,5.673-.008,2.573,4.47-1.031,1.786Z" transform="translate(1288.919 11422.014)"/><g transform="translate(474.582 982.83)"><g class="h" transform="matrix(1, 0, 0, 1, -14.66, -11.59)"><path class="b" d="M-254.388-9915.084h-3.075l-3.5-6,3.5-6h18.632l2.332-4-2.332-4h-3.13v0h-17.5v-2h17.791v0h3.988l3.5,6-3.5,6h-4.279v0h-11.222v0h-3.13l-2.332,4,2.332,4H-236.6v2Z" transform="translate(277.54 9951.38)"/></g><g class="g" transform="matrix(1, 0, 0, 1, -14.66, -11.59)"><path class="e" d="M4.82,5.474,2.844,2.016.868,5.474-.868,4.481l3.713-6.5,3.713,6.5Z" transform="translate(42.65 32.46) rotate(90)"/></g><g class="f" transform="matrix(1, 0, 0, 1, -14.66, -11.59)"><path class="e" d="M5.689,0,3.713,3.458,1.737,0,0,.992l3.713,6.5L7.426.992Z" transform="translate(22.15 11.59) rotate(90)"/></g></g></g></svg>