<svg xmlns="http://www.w3.org/2000/svg" xmlns:xlink="http://www.w3.org/1999/xlink" width="16.278" height="14.15" viewBox="0 0 16.278 14.15"><defs><style>.a{fill:#fff;}.b{fill:#ffb940;}.c{filter:url(#d);}.d{filter:url(#a);}</style><filter id="a"><feOffset input="SourceAlpha"/><feGaussianBlur stdDeviation="3" result="b"/><feFlood flood-color="#ffb940" result="c"/><feComposite operator="out" in="SourceGraphic" in2="b"/><feComposite operator="in" in="c"/><feComposite operator="in" in2="SourceGraphic"/></filter><filter id="d"><feOffset input="SourceAlpha"/><feGaussianBlur stdDeviation="3" result="e"/><feFlood flood-color="#ffb940" result="f"/><feComposite operator="out" in="SourceGraphic" in2="e"/><feComposite operator="in" in="f"/><feComposite operator="in" in2="SourceGraphic"/></filter></defs><g transform="translate(-220.722 -96.252)"><g class="d" transform="matrix(1, 0, 0, 1, 220.72, 96.25)"><path class="a" d="M12.209,0l4.07,7.075-4.07,7.075H4.07L0,7.075,4.07,0Z" transform="translate(16.28 14.15) rotate(-180)"/></g><g class="c" transform="matrix(1, 0, 0, 1, 220.72, 96.25)"><path class="a" d="M12.209,0l4.07,7.075-4.07,7.075H4.07L0,7.075,4.07,0Z" transform="translate(16.28 14.15) rotate(-180)"/></g><path class="b" d="M5.351,4.851h-1V.5H0v-1H5.351Z" transform="translate(225.57 103) rotate(-45)"/><path class="b" d="M5.351,4.851h-1V.5H0v-1H5.351Z" transform="translate(225.57 106.57) rotate(-45)"/></g></svg>