<svg xmlns="http://www.w3.org/2000/svg" xmlns:xlink="http://www.w3.org/1999/xlink" width="193.003" height="141.245" viewBox="0 0 193.003 141.245"><defs><style>.a{fill:#fff;}.b,.e{fill:none;}.b{stroke:rgba(255,185,64,0.51);stroke-width:2px;}.c{fill:url(#d);}.d{fill:url(#e);}.e{stroke:rgba(255,185,64,0.76);}.f{fill:url(#f);}.g{fill:#ffb940;}.h{filter:url(#i);}.i{filter:url(#g);}.j{filter:url(#a);}</style><filter id="a"><feOffset input="SourceAlpha"/><feGaussianBlur stdDeviation="6.5" result="b"/><feFlood result="c"/><feComposite operator="out" in="SourceGraphic" in2="b"/><feComposite operator="in" in="c"/><feComposite operator="in" in2="SourceGraphic"/></filter><radialGradient id="d" cx="0.06" cy="0.5" r="1.262" gradientTransform="translate(0 0.26) scale(1 0.481)" gradientUnits="objectBoundingBox"><stop offset="0" stop-color="#f90"/><stop offset="1" stop-color="#805d20" stop-opacity="0"/></radialGradient><radialGradient id="e" cx="0.94" cy="0.5" r="1.262" gradientTransform="matrix(-1, 0, 0, 0.481, 1.88, 0.26)" xlink:href="#d"/><radialGradient id="f" cx="0.5" cy="0.5" r="0.5" gradientTransform="translate(0 -0.056) scale(1 1.111)" gradientUnits="objectBoundingBox"><stop offset="0" stop-color="#604215" stop-opacity="0"/><stop offset="0.72" stop-color="#764e12" stop-opacity="0.137"/><stop offset="1" stop-color="#f90"/></radialGradient><filter id="g" x="0" y="43.124" width="29.162" height="53" filterUnits="userSpaceOnUse"><feOffset dx="3" input="SourceAlpha"/><feGaussianBlur stdDeviation="3" result="h"/><feFlood flood-color="#f90"/><feComposite operator="in" in2="h"/><feComposite in="SourceGraphic"/></filter><filter id="i" x="163.841" y="43.124" width="29.161" height="53" filterUnits="userSpaceOnUse"><feOffset dx="-3" input="SourceAlpha"/><feGaussianBlur stdDeviation="3" result="j"/><feFlood flood-color="#f90"/><feComposite operator="in" in2="j"/><feComposite in="SourceGraphic"/></filter></defs><g transform="translate(-355.681 -894.089)"><g data-type="innerShadowGroup"><g class="j" transform="matrix(1, 0, 0, 1, 355.68, 894.09)"><path class="a" d="M115.618,0a6,6,0,0,1,5.212,3.028L157.11,66.65a6,6,0,0,1,0,5.944l-36.28,63.622a6,6,0,0,1-5.212,3.028H43.187a6,6,0,0,1-5.212-3.028L1.695,72.595a6,6,0,0,1,0-5.944L37.975,3.028A6,6,0,0,1,43.187,0Z" transform="translate(176.12 140.24) rotate(180)"/></g><path class="b" d="M115.618,0a6,6,0,0,1,5.212,3.028L157.11,66.65a6,6,0,0,1,0,5.944l-36.28,63.622a6,6,0,0,1-5.212,3.028H43.187a6,6,0,0,1-5.212-3.028L1.695,72.595a6,6,0,0,1,0-5.944L37.975,3.028A6,6,0,0,1,43.187,0Z" transform="translate(531.805 1034.334) rotate(180)"/></g><path class="c" d="M28.85,106,.3,56.238a8,8,0,0,1,0-7.928L28.23-.373l2.664,1.528L2.968,49.838a4.913,4.913,0,0,0,0,4.872l28.546,49.763Z" transform="translate(378.354 912.437)"/><path class="d" d="M1.916,106,30.462,56.238a8,8,0,0,0,0-7.928L2.536-.373-.128,1.155,27.8,49.838a4.913,4.913,0,0,1,0,4.872L-.748,104.472Z" transform="translate(495.119 912.439)"/><path class="e" d="M97.9,0a6,6,0,0,1,5.2,3.015l30.349,52.907a6,6,0,0,1,0,5.971L103.1,114.8a6,6,0,0,1-5.2,3.015H37.266a6,6,0,0,1-5.2-3.015L1.713,61.892a6,6,0,0,1,0-5.971L32.062,3.015A6,6,0,0,1,37.266,0Z" transform="translate(519.984 1023.619) rotate(180)"/><path class="f" d="M96.751,117.808H36.088a6.014,6.014,0,0,1-5.2-3.014L.521,61.89a6.023,6.023,0,0,1,0-5.973l30.363-52.9A6.013,6.013,0,0,1,36.088,0H96.751a6.013,6.013,0,0,1,5.2,3.013l30.363,52.9a6.023,6.023,0,0,1,0,5.973l-30.363,52.9A6.014,6.014,0,0,1,96.751,117.808ZM40.374,7.5a6.015,6.015,0,0,0-5.2,3.012L9.1,55.916a6.018,6.018,0,0,0,0,5.976l26.073,45.4a6.014,6.014,0,0,0,5.2,3.012H92.465a6.014,6.014,0,0,0,5.2-3.012l26.073-45.4a6.019,6.019,0,0,0,0-5.976l-26.073-45.4a6.015,6.015,0,0,0-5.2-3.012Z" transform="translate(385.983 905.81)"/><g class="i" transform="matrix(1, 0, 0, 1, 355.68, 894.09)"><path class="g" d="M97-12523l-10-17.5,10-17.5,1.162,2-8.857,15.5,8.857,15.5Z" transform="translate(-81 12610.12)"/></g><g class="h" transform="matrix(1, 0, 0, 1, 355.68, 894.09)"><path class="g" d="M97.221-12523l10-17.5-10-17.5-1.162,2,8.857,15.5L96.06-12525Z" transform="translate(79.78 12610.12)"/></g></g></svg>