<svg xmlns="http://www.w3.org/2000/svg" xmlns:xlink="http://www.w3.org/1999/xlink" width="139.608" height="55.8"
  viewBox="0 0 139.608 55.8">
  <defs>
    <style>
      .a {
        fill: rgba(0, 0, 0, 0.25);
      }

      .b,
      .e {
        fill: #fff;
      }

      .c {
        fill: none;
        stroke: rgba(255, 185, 64, 0.51);
      }

      .d {
        fill: #f90;
        opacity: 0.6;
      }

      .e {
        font-size: 14px;
        font-family: MicrosoftYaHei, Microsoft YaHei;
      }

      .f {
        fill: rgba(252, 252, 123, 0.75);
      }

      .g {
        fill: rgba(224, 254, 254, 0.75);
      }

      .h {
        filter: url(#i);
      }

      .i {
        filter: url(#g);
      }

      .j {
        filter: url(#d);
      }

      .k {
        filter: url(#a);
      }
    </style>
    <filter id="a">
      <feOffset input="SourceAlpha" />
      <feGaussianBlur stdDeviation="5" result="b" />
      <feFlood flood-opacity="0.251" result="c" />
      <feComposite operator="out" in="SourceGraphic" in2="b" />
      <feComposite operator="in" in="c" />
      <feComposite operator="in" in2="SourceGraphic" />
    </filter>
    <filter id="d">
      <feOffset input="SourceAlpha" />
      <feGaussianBlur stdDeviation="5" result="e" />
      <feFlood flood-opacity="0.251" result="f" />
      <feComposite operator="out" in="SourceGraphic" in2="e" />
      <feComposite operator="in" in="f" />
      <feComposite operator="in" in2="SourceGraphic" />
    </filter>
    <filter id="g" x="72.724" y="0.957" width="54" height="24" filterUnits="userSpaceOnUse">
      <feOffset input="SourceAlpha" />
      <feGaussianBlur stdDeviation="3" result="h" />
      <feFlood flood-color="#fff1aa" />
      <feComposite operator="in" in2="h" />
      <feComposite in="SourceGraphic" />
    </filter>
    <filter id="i" x="72.724" y="29.957" width="54" height="24" filterUnits="userSpaceOnUse">
      <feOffset input="SourceAlpha" />
      <feGaussianBlur stdDeviation="3" result="j" />
      <feFlood flood-color="#7df6ff" />
      <feComposite operator="in" in2="j" />
      <feComposite in="SourceGraphic" />
    </filter>
  </defs>
  <g transform="translate(-459.276 -996.043)">
    <g data-type="innerShadowGroup">
      <path class="a" d="M42.87,0,57.16,24.956H-79L-64.71,0Z" transform="translate(518.16 1022) rotate(180)" />
      <g class="k" transform="matrix(1, 0, 0, 1, 459.28, 996.04)">
        <path class="b" d="M42.87,0,57.16,24.956H-79L-64.71,0Z" transform="translate(58.88 25.96) rotate(180)" />
      </g>
      <path class="c" d="M42.87,0,57.16,24.956H-79L-64.71,0Z" transform="translate(518.16 1022) rotate(180)" />
    </g>
    <g data-type="innerShadowGroup">
      <path class="a" d="M121.87,24.956,136.161,0H0L14.29,24.956Z"
        transform="translate(597.161 1050.843) rotate(180)" />
      <g class="j" transform="matrix(1, 0, 0, 1, 459.28, 996.04)">
        <path class="b" d="M121.87,24.956,136.161,0H0L14.29,24.956Z" transform="translate(137.88 54.8) rotate(180)" />
      </g>
      <path class="c" d="M121.87,24.956,136.161,0H0L14.29,24.956Z"
        transform="translate(597.161 1050.843) rotate(180)" />
    </g>
    <path class="d"
      d="M-816.805-10404.086l1.031-1.787,2.831,4.916,5.155,0-1.031,1.787-5.157,0Zm105.819,4.687-1.031-1.787,5.673.008,2.572-4.47,1.031,1.787-2.572,4.467Zm14.951-20.114,2.551-4.456h-4.935v-2h8.384l-3.695,6.455Zm-127.61,0h-2.3l-3.695-6.457,8.224,0v2h-4.775l2.551,4.454v0Z"
      transform="translate(1288.919 11422.014)" />
    <path class="d"
      d="M12.837,4.916,13.868,6.7,16.7,1.787l5.155,0L20.823,0,15.665,0ZM118.656.229l-1.031,1.787,5.673-.008,2.572,4.47L126.9,4.691,124.329.225Zm14.951,20.114,2.551,4.456h-4.935v2h8.384l-3.695-6.455ZM6,20.344h-2.3L0,26.8l8.224,0v-2H3.449L6,20.346v0Z"
      transform="translate(459.276 1025.043)" /><text class="e" transform="translate(477 1014)">
      <tspan x="0" y="0" fill="#fff">健康跑道</tspan>
    </text><text class="e" transform="translate(477 1043)">
      <tspan x="0" y="0" fill="#fff">慢行步道</tspan>
    </text>
    <g class="i" transform="matrix(1, 0, 0, 1, 459.28, 996.04)">
      <rect class="f" width="36" height="6" transform="translate(81.72 9.96)" />
    </g>
    <g class="h" transform="matrix(1, 0, 0, 1, 459.28, 996.04)">
      <rect class="g" width="36" height="6" transform="translate(81.72 38.96)" />
    </g>
  </g>
</svg>