<svg xmlns="http://www.w3.org/2000/svg" xmlns:xlink="http://www.w3.org/1999/xlink" width="59.325" height="51.599" viewBox="0 0 59.325 51.599"><defs><style>.a{fill:rgba(255,153,0,0.35);}.b{fill:#fff;}.c{fill:none;stroke:rgba(255,185,64,0.8);}.d,.e{fill:#f90;}.d{opacity:0.7;}.f{filter:url(#f);}.g{filter:url(#d);}.h{filter:url(#a);}</style><filter id="a"><feOffset input="SourceAlpha"/><feGaussianBlur stdDeviation="5" result="b"/><feFlood flood-opacity="0.349" result="c"/><feComposite operator="out" in="SourceGraphic" in2="b"/><feComposite operator="in" in="c"/><feComposite operator="in" in2="SourceGraphic"/></filter><filter id="d" x="5.7" y="8.912" width="25.948" height="34.904" filterUnits="userSpaceOnUse"><feOffset input="SourceAlpha"/><feGaussianBlur stdDeviation="3" result="e"/><feFlood flood-color="#f90"/><feComposite operator="in" in2="e"/><feComposite in="SourceGraphic"/></filter><filter id="f" x="15.024" y="1.66" width="38.602" height="48.281" filterUnits="userSpaceOnUse"><feOffset input="SourceAlpha"/><feGaussianBlur stdDeviation="3" result="g"/><feFlood flood-color="#f90"/><feComposite operator="in" in2="g"/><feComposite in="SourceGraphic"/></filter></defs><g transform="translate(-459.918 -971.244)"><g data-type="innerShadowGroup"><path class="a" d="M42.87,0,57.16,24.956,42.87,49.912H14.29L0,24.956,14.29,0Z" transform="translate(518.16 1022) rotate(180)"/><g class="h" transform="matrix(1, 0, 0, 1, 459.92, 971.24)"><path class="b" d="M42.87,0,57.16,24.956,42.87,49.912H14.29L0,24.956,14.29,0Z" transform="translate(58.24 50.76) rotate(180)"/></g><path class="c" d="M42.87,0,57.16,24.956,42.87,49.912H14.29L0,24.956,14.29,0Z" transform="translate(518.16 1022) rotate(180)"/></g><path class="d" d="M-816.8-10404.086l1.031-1.786,2.83,4.915,5.156-.006-1.033,1.786-5.154.006Zm26.821,4.687-1.033-1.786,5.673,0,2.573-4.466,1.031,1.786-2.573,4.466Zm15.663-20.883h0v0l2.583-4.461-2.843-4.907h2.064l2.843,4.907-2.583,4.464Zm-52.1,0-2.583-4.464,2.843-4.907h2.061l-2.84,4.907,2.583,4.464Zm9.613-25.569,2.83-4.918,5.156.008,1.031,1.783v0h0l-5.154-.008-2.83,4.918Zm34.031,1.561-2.57-4.467-5.673,0,1.031-1.786,5.673-.008,2.573,4.47-1.031,1.786Z" transform="translate(1288.919 11422.014)"/><g transform="translate(-462.633 910.905)"><g class="g" transform="matrix(1, 0, 0, 1, 922.55, 60.34)"><path class="e" d="M-14649.75-17677.846a1.252,1.252,0,0,1-1.249-1.254,1.251,1.251,0,0,1,1.249-1.248h5.451a1.25,1.25,0,0,1,1.248,1.248,1.251,1.251,0,0,1-1.248,1.254Zm0-7.2a1.25,1.25,0,0,1-1.249-1.252,1.249,1.249,0,0,1,1.249-1.248h5.451a1.248,1.248,0,0,1,1.248,1.248,1.249,1.249,0,0,1-1.248,1.252Zm0-7.2a1.249,1.249,0,0,1-1.249-1.248,1.25,1.25,0,0,1,1.249-1.252h5.451a1.249,1.249,0,0,1,1.248,1.252,1.248,1.248,0,0,1-1.248,1.248Z" transform="translate(14665.7 17712.66)"/></g><g class="f" transform="matrix(1, 0, 0, 1, 922.55, 60.34)"><path class="b" d="M-14625.338-17672.334l-3.9-6.557-3.446-2.477-.6,2.3a1.234,1.234,0,0,1-.547.746l-5.931,3.729a1.257,1.257,0,0,1-.666.191,1.247,1.247,0,0,1-1.058-.588,1.249,1.249,0,0,1,.391-1.723l5.514-3.461.859-3.316a1.25,1.25,0,0,1,.15-.578l1.49-5.746h-2.838l-3.069,4.652a1.248,1.248,0,0,1-1.044.563,1.223,1.223,0,0,1-.685-.207,1.25,1.25,0,0,1-.36-1.729l3.439-5.217a1.258,1.258,0,0,1,1.044-.564h9.169l4.1-5.521a1.245,1.245,0,0,1,1.746-.258,1.25,1.25,0,0,1,.262,1.746l-4.47,6.029a1.249,1.249,0,0,1-1,.506h-3.7l-1.517,5.85,4.442,3.191a1.264,1.264,0,0,1,.342.377l4.039,6.785a1.242,1.242,0,0,1-.436,1.709,1.223,1.223,0,0,1-.64.178A1.251,1.251,0,0,1-14625.338-17672.334Zm-9.912-25.664a4,4,0,0,1,4-4,4,4,0,0,1,4,4,4,4,0,0,1-4,4A4,4,0,0,1-14635.25-17698Z" transform="translate(14665.7 17712.66)"/></g></g></g></svg>