<svg xmlns="http://www.w3.org/2000/svg" xmlns:xlink="http://www.w3.org/1999/xlink" width="27" height="24" viewBox="0 0 27 24"><defs><style>.a{fill:#fff;}.b{fill:none;}.c{fill:#ffb940;}.d,.e{stroke:none;}.e{fill:#ffb940;}.f{filter:url(#a);}</style><filter id="a"><feOffset input="SourceAlpha"/><feGaussianBlur stdDeviation="3" result="b"/><feFlood flood-color="#f90" result="c"/><feComposite operator="out" in="SourceGraphic" in2="b"/><feComposite operator="in" in="c"/><feComposite operator="in" in2="SourceGraphic"/></filter></defs><g transform="translate(-75 -320)"><g data-type="innerShadowGroup"><g class="f" transform="matrix(1, 0, 0, 1, 75, 320)"><g class="a" transform="translate(27 24) rotate(180)"><path class="d" d="M20.25,0,27,12,20.25,24H6.75L0,12,6.75,0Z"/><path class="d" d="M 7.334850311279297 1 L 1.147350311279297 12 L 7.334850311279297 23 L 19.6651496887207 23 L 25.8526496887207 12 L 19.6651496887207 1 L 7.334850311279297 1 M 6.75 0 L 20.25 0 L 27 12 L 20.25 24 L 6.75 24 L 0 12 L 6.75 0 Z"/></g></g><g class="b" transform="translate(102 344) rotate(180)"><path class="d" d="M20.25,0,27,12,20.25,24H6.75L0,12,6.75,0Z"/><path class="e" d="M 7.334850311279297 1 L 1.147350311279297 12 L 7.334850311279297 23 L 19.6651496887207 23 L 25.8526496887207 12 L 19.6651496887207 1 L 7.334850311279297 1 M 6.75 0 L 20.25 0 L 27 12 L 20.25 24 L 6.75 24 L 0 12 L 6.75 0 Z"/></g></g><g transform="translate(0 -0.5)"><circle class="c" cx="4.5" cy="4.5" r="4.5" transform="translate(84 328)"/><rect class="c" width="2" height="2" transform="translate(87.5 325)"/><rect class="c" width="2" height="2" transform="translate(94.495 327.884) rotate(60)"/><rect class="c" width="2" height="2" transform="translate(95.495 335.384) rotate(120)"/><rect class="c" width="2" height="2" transform="translate(87.5 338)"/><rect class="c" width="2" height="2" transform="translate(83.237 334.384) rotate(60)"/><rect class="c" width="2" height="2" transform="translate(84.237 328.884) rotate(120)"/></g></g></svg>