<?xml version="1.0" standalone="no"?><!DOCTYPE svg PUBLIC "-//W3C//DTD SVG 1.1//EN" "http://www.w3.org/Graphics/SVG/1.1/DTD/svg11.dtd"><svg t="1629713045366" class="icon" viewBox="0 0 1024 1024" version="1.1" xmlns="http://www.w3.org/2000/svg" p-id="4899" xmlns:xlink="http://www.w3.org/1999/xlink" width="200" height="200"><defs><style type="text/css"></style></defs><path d="M512.5 214c39.6 0 71.7-32.1 71.7-71.7s-32.1-71.7-71.7-71.7-71.7 32.1-71.7 71.7 32.1 71.7 71.7 71.7zM501.9 668.7v250.8c0 45.1-67.6 45.1-67.6 0V668.7h-89.6l95.9-332.6h-15.1l-56.5 190c-13.4 41.4-70.3 24.4-57.3-20l62.7-206.4c6.7-23.5 36.5-65.3 88-65.3H561c51.1 0 81 42.1 88.7 65.3l62.7 206.2c12.5 44.3-43.9 62.7-57.3 19.5l-56.4-189.3h-16.3l96.9 332.6h-90v251.2c0 44.8-67.3 44.6-67.3 0V668.7h-20.1z" p-id="4900" fill="#ffffff"></path></svg>