<?xml version="1.0" standalone="no"?><!DOCTYPE svg PUBLIC "-//W3C//DTD SVG 1.1//EN" "http://www.w3.org/Graphics/SVG/1.1/DTD/svg11.dtd"><svg t="1628672576576" class="icon" viewBox="0 0 1024 1024" version="1.1" xmlns="http://www.w3.org/2000/svg" p-id="7250" xmlns:xlink="http://www.w3.org/1999/xlink" width="200" height="200"><defs><style type="text/css"></style></defs><path d="M96 373.333333m-32 0a32 32 0 1 0 64 0 32 32 0 1 0-64 0Z" p-id="7251" fill="#ffffff"></path><path d="M160 245.333333m-32 0a32 32 0 1 0 64 0 32 32 0 1 0-64 0Z" p-id="7252" fill="#ffffff"></path><path d="M288 181.333333m-32 0a32 32 0 1 0 64 0 32 32 0 1 0-64 0Z" p-id="7253" fill="#ffffff"></path><path d="M416 181.333333m-32 0a32 32 0 1 0 64 0 32 32 0 1 0-64 0Z" p-id="7254" fill="#ffffff"></path><path d="M871.253333 349.653333c-52.053333-53.12-122.666667-88.106667-200.533333-93.013333-69.76-4.48-136.32 14.933333-191.36 51.84A180.010667 180.010667 0 0 0 352 256C251.946667 256 170.666667 337.28 170.666667 437.333333c0 18.346667 2.773333 35.84 7.68 52.48-60.586667 29.653333-105.173333 89.6-113.066667 158.293334-6.613333 57.813333 11.733333 115.626667 50.133333 158.72A202.666667 202.666667 0 0 0 266.666667 874.666667h384c85.12 0 164.266667-33.706667 223.146666-95.146667 58.88-61.226667 89.386667-141.866667 85.973334-226.986667-3.2-78.08-36.48-149.546667-88.533334-202.88zM352 320c29.866667 0 56.96 11.093333 77.653333 29.653333a307.52 307.52 0 0 0-78.293333 138.24c-34.773333-16.213333-72.96-21.76-111.786667-16.853333A117.546667 117.546667 0 0 1 352 320z m475.733333 415.146667A243.584 243.584 0 0 1 650.666667 810.666667h-384c-39.466667 0-77.226667-16.853333-103.466667-46.506667-26.666667-29.866667-38.826667-68.48-34.346667-108.8 5.546667-47.36 36.48-88.533333 78.506667-108.8 11.946667-5.76 24.746667-9.813333 38.186667-11.733333 7.04-1.066667 14.08-1.493333 21.12-1.493334 6.826667 0 13.44 0.426667 20.053333 1.493334 16.426667 2.346667 32.213333 7.466667 46.72 15.573333 2.986667 1.493333 5.973333 2.773333 8.96 3.84a51.605333 51.605333 0 0 0 42.24-4.266667c13.226667-7.466667 23.04-20.48 26.24-35.626666 8.746667-41.173333 27.733333-78.08 54.186667-108.373334 14.933333-17.28 32.213333-32.426667 51.2-45.013333C555.52 334.933333 602.453333 320 651.306667 320c5.12 0 10.24 0 15.36 0.426667 123.52 7.893333 224 110.933333 229.12 234.666666 2.773333 67.626667-21.333333 131.413333-68.053334 180.053334z" p-id="7255" fill="#ffffff"></path></svg>